<svg xmlns="http://www.w3.org/2000/svg" viewBox="0 0 640 360">
<defs><pattern id="g" width="42" height="42" patternUnits="userSpaceOnUse"><path d="M42 0H0v42" stroke="#cfc9e4" fill="none"/></pattern><filter id="s"><feDropShadow dx="0" dy="8" stdDeviation="5" flood-color="#7d739d" flood-opacity=".18"/></filter><g id="b"><rect y="5" width="48" height="48" rx="7" fill="currentColor" opacity=".6"/><rect width="48" height="48" rx="7" fill="currentColor"/><path d="M9 10h30" stroke="white" opacity=".35" stroke-width="3" stroke-linecap="round"/></g></defs>
<path fill="#ebe6f7" d="M0 0h640v360H0z"/><path fill="url(#g)" opacity=".35" d="M120 25h400v260H120z"/>
<g filter="url(#s)">
<g transform="translate(164 93) rotate(-10 50 50)" color="#b5a0d8"><use href="#b"/><use href="#b" x="51"/><use href="#b" x="102"/><use href="#b" x="51" y="51"/></g>
<g transform="translate(359 53) rotate(13 40 70)" color="#dfac7c"><use href="#b"/><use href="#b" y="51"/><use href="#b" y="102"/><use href="#b" x="51" y="102"/></g>
<g transform="translate(211 209) rotate(-5)" color="#88b9ae"><use href="#b"/><use href="#b" x="51"/><use href="#b" x="51" y="51"/><use href="#b" x="102" y="51"/></g>
<g transform="translate(419 223) rotate(10) scale(.8)" color="#de8f9f"><use href="#b"/><use href="#b" x="51"/><use href="#b" y="51"/><use href="#b" x="51" y="51"/></g>
</g><path d="m142 217 6 11 12 3-12 5-4 11-5-11-12-3 11-5Z" fill="#bab0d9"/>
<text x="320" y="334" text-anchor="middle" font-family="Trebuchet MS,Arial,sans-serif" font-size="13" font-weight="700" letter-spacing="5" fill="#9b8ab7">EVERY PIECE HAS A PLACE.</text>
</svg>
